<?xml version="1.0" standalone="no"?>
<!DOCTYPE svg PUBLIC "-//W3C//DTD SVG 20010904//EN"
 "http://www.w3.org/TR/2001/REC-SVG-20010904/DTD/svg10.dtd">
<svg version="1.0" xmlns="http://www.w3.org/2000/svg"
 width="836.000000pt" height="836.000000pt" viewBox="0 0 836.000000 836.000000"
 preserveAspectRatio="xMidYMid meet">
<metadata>
Created by potrace 1.14, written by Peter Selinger 2001-2017
</metadata>
<g transform="translate(0.000000,836.000000) scale(0.100000,-0.100000)"
fill="#000000" stroke="none">
<path d="M3087 8354 c-1 -1 -27 -5 -57 -8 -58 -6 -95 -12 -145 -23 -42 -10
-44 -10 -50 -13 -3 -1 -8 -3 -12 -4 -65 -15 -221 -91 -268 -132 -16 -14 -35
-29 -40 -32 -14 -9 -86 -97 -121 -148 -137 -198 -143 -205 -264 -300 -61 -48
-143 -135 -164 -172 -5 -10 -12 -19 -16 -22 -3 -3 -22 -36 -42 -75 -54 -106
-98 -242 -112 -345 -3 -25 -8 -56 -11 -70 -10 -48 -16 -177 -20 -415 -2 -132
-5 -240 -6 -240 0 0 -2 -11 -3 -25 -15 -146 -32 -188 -134 -332 -34 -48 -62
-91 -62 -96 0 -6 -4 -12 -9 -14 -11 -4 -86 -142 -109 -203 -10 -27 -22 -59
-27 -70 -10 -24 -14 -42 -20 -77 -2 -15 -11 -49 -20 -75 -26 -76 -27 -81 -30
-213 -4 -161 19 -256 98 -415 43 -86 137 -313 137 -331 0 -3 6 -20 14 -37 24
-54 123 -360 150 -462 16 -60 41 -147 54 -185 3 -8 6 -19 7 -25 10 -44 88
-270 112 -325 8 -19 22 -51 30 -70 78 -181 216 -425 325 -575 10 -14 99 -118
113 -132 8 -7 11 -38 10 -81 -3 -84 10 -137 64 -265 23 -54 46 -121 52 -150
16 -84 14 -275 -6 -602 -5 -76 -9 -146 -20 -330 -3 -44 -7 -105 -10 -135 -2
-30 -7 -89 -10 -130 -9 -139 -16 -235 -20 -285 -2 -27 -7 -90 -10 -140 -3 -49
-8 -108 -10 -130 -2 -22 -7 -83 -10 -135 -8 -111 -12 -165 -19 -238 l-5 -52
397 0 c289 -1 2751 0 3091 0 l33 0 -6 783 c-9 1106 -14 1381 -30 1467 -3 14
-7 37 -10 53 -3 15 -8 36 -11 47 -5 15 0 23 22 32 132 57 319 247 411 418 37
69 103 201 122 245 12 28 27 64 35 80 56 122 171 483 192 600 2 11 8 43 13 71
6 28 13 61 15 75 3 13 7 35 10 49 3 14 8 41 11 60 2 19 7 46 10 60 5 25 11 70
19 140 14 119 21 203 31 339 4 63 11 93 28 120 13 20 27 47 31 61 4 14 11 30
15 35 4 6 20 46 35 90 20 60 28 104 30 175 2 52 0 100 -4 105 -4 6 -13 30 -20
53 -10 37 -10 46 3 60 8 10 14 19 14 22 -1 3 12 32 29 65 42 86 83 197 86 233
1 18 4 32 7 32 10 0 3 165 -9 210 -6 25 -13 52 -16 60 -9 36 -65 162 -105 235
-24 44 -48 90 -54 102 -6 13 -14 23 -18 23 -5 0 -8 5 -8 12 0 6 -31 60 -70
119 -38 60 -70 112 -70 115 0 22 -85 112 -140 148 -67 45 -114 64 -190 80 -11
2 -17 25 -22 92 -8 102 -14 150 -23 164 -3 6 -8 20 -10 32 -9 51 -98 206 -152
267 -92 103 -223 231 -279 272 -50 37 -159 95 -219 117 -43 16 -124 28 -170
26 -62 -3 -170 -15 -174 -20 -2 -2 -14 36 -27 85 -26 103 -69 177 -138 238
-70 61 -139 91 -336 143 -47 12 -96 26 -110 31 -22 7 -82 23 -130 35 -8 2 -49
12 -90 23 -194 52 -325 47 -453 -19 -60 -31 -132 -82 -154 -110 -10 -13 -15
-11 -38 12 -14 15 -25 30 -25 34 0 13 -117 126 -159 154 -48 30 -159 64 -246
76 -48 6 -273 13 -278 8z"/>
</g>
</svg>
